<mxfile host="app.diagrams.net" agent="Mozilla/5.0 (Windows NT 10.0; Win64; x64) AppleWebKit/537.36 (KHTML, like Gecko) Chrome/128.0.0.0 Safari/537.36" version="24.7.16">
  <diagram name="Page-1" id="EizfMboj0m_JcJLc6Q6Q">
    <mxGraphModel dx="1399" dy="764" grid="0" gridSize="10" guides="1" tooltips="1" connect="1" arrows="1" fold="1" page="1" pageScale="1" pageWidth="850" pageHeight="1100" math="0" shadow="0">
      <root>
        <mxCell id="0" />
        <mxCell id="1" parent="0" />
        <mxCell id="I1Nm32FQnlpQxQIGihCn-21" style="rounded=0;orthogonalLoop=1;jettySize=auto;html=1;exitX=1;exitY=1;exitDx=0;exitDy=0;strokeColor=default;startArrow=none;startFill=0;" edge="1" parent="1" source="I1Nm32FQnlpQxQIGihCn-1" target="I1Nm32FQnlpQxQIGihCn-3">
          <mxGeometry relative="1" as="geometry" />
        </mxCell>
        <mxCell id="I1Nm32FQnlpQxQIGihCn-25" value="&lt;font style=&quot;font-size: 14px;&quot;&gt;&amp;gt;= 0,3&lt;/font&gt;" style="edgeLabel;html=1;align=center;verticalAlign=middle;resizable=0;points=[];fontFamily=Helvetica;fontSize=11;fontColor=default;labelBackgroundColor=default;" vertex="1" connectable="0" parent="I1Nm32FQnlpQxQIGihCn-21">
          <mxGeometry x="0.1553" y="-2" relative="1" as="geometry">
            <mxPoint x="4" y="-30" as="offset" />
          </mxGeometry>
        </mxCell>
        <mxCell id="I1Nm32FQnlpQxQIGihCn-23" style="edgeStyle=none;shape=connector;rounded=0;orthogonalLoop=1;jettySize=auto;html=1;exitX=0;exitY=1;exitDx=0;exitDy=0;entryX=1;entryY=0;entryDx=0;entryDy=0;strokeColor=default;align=center;verticalAlign=middle;fontFamily=Helvetica;fontSize=11;fontColor=default;labelBackgroundColor=default;startArrow=none;startFill=0;endArrow=classic;" edge="1" parent="1" source="I1Nm32FQnlpQxQIGihCn-1" target="I1Nm32FQnlpQxQIGihCn-2">
          <mxGeometry relative="1" as="geometry" />
        </mxCell>
        <mxCell id="I1Nm32FQnlpQxQIGihCn-26" value="&lt;font style=&quot;font-size: 14px;&quot;&gt;&amp;lt; 0,3&lt;/font&gt;" style="edgeLabel;html=1;align=center;verticalAlign=middle;resizable=0;points=[];fontFamily=Helvetica;fontSize=11;fontColor=default;labelBackgroundColor=default;fillColor=none;gradientColor=none;" vertex="1" connectable="0" parent="I1Nm32FQnlpQxQIGihCn-23">
          <mxGeometry x="0.0078" y="1" relative="1" as="geometry">
            <mxPoint x="-10" y="-21" as="offset" />
          </mxGeometry>
        </mxCell>
        <mxCell id="I1Nm32FQnlpQxQIGihCn-1" value="&lt;p style=&quot;line-height: 120%;&quot;&gt;&lt;/p&gt;&lt;div style=&quot;line-height: 120%;&quot;&gt;&lt;span data-darkreader-inline-color=&quot;&quot; data-darkreader-inline-bgcolor=&quot;&quot; style=&quot;background-color: initial; color: rgb(0, 0, 0); --darkreader-inline-bgcolor: initial; --darkreader-inline-color: #ffffff;&quot;&gt;&lt;font style=&quot;font-size: 16px;&quot;&gt;y1&lt;/font&gt;&lt;/span&gt;&lt;/div&gt;&lt;p&gt;&lt;/p&gt;" style="ellipse;whiteSpace=wrap;html=1;aspect=fixed;align=center;" vertex="1" parent="1">
          <mxGeometry x="370" y="90" width="60" height="60" as="geometry" />
        </mxCell>
        <mxCell id="I1Nm32FQnlpQxQIGihCn-33" style="edgeStyle=none;shape=connector;rounded=0;orthogonalLoop=1;jettySize=auto;html=1;exitX=0.5;exitY=1;exitDx=0;exitDy=0;entryX=0.5;entryY=0;entryDx=0;entryDy=0;strokeColor=default;align=center;verticalAlign=middle;fontFamily=Helvetica;fontSize=11;fontColor=default;labelBackgroundColor=default;resizable=0;startArrow=none;startFill=0;endArrow=classic;" edge="1" parent="1" source="I1Nm32FQnlpQxQIGihCn-2" target="I1Nm32FQnlpQxQIGihCn-14">
          <mxGeometry relative="1" as="geometry" />
        </mxCell>
        <mxCell id="I1Nm32FQnlpQxQIGihCn-37" value="&lt;font style=&quot;font-size: 14px;&quot;&gt;1&lt;/font&gt;" style="edgeLabel;html=1;align=center;verticalAlign=middle;resizable=0;points=[];fontFamily=Helvetica;fontSize=11;fontColor=default;labelBackgroundColor=default;fillColor=none;gradientColor=none;" vertex="1" connectable="0" parent="I1Nm32FQnlpQxQIGihCn-33">
          <mxGeometry x="0.1" y="2" relative="1" as="geometry">
            <mxPoint x="-12" y="-3" as="offset" />
          </mxGeometry>
        </mxCell>
        <mxCell id="I1Nm32FQnlpQxQIGihCn-34" style="edgeStyle=none;shape=connector;rounded=0;orthogonalLoop=1;jettySize=auto;html=1;exitX=0.5;exitY=1;exitDx=0;exitDy=0;entryX=0.5;entryY=0;entryDx=0;entryDy=0;strokeColor=default;align=center;verticalAlign=middle;fontFamily=Helvetica;fontSize=11;fontColor=default;labelBackgroundColor=default;resizable=0;startArrow=none;startFill=0;endArrow=classic;" edge="1" parent="1" source="I1Nm32FQnlpQxQIGihCn-2" target="I1Nm32FQnlpQxQIGihCn-16">
          <mxGeometry relative="1" as="geometry" />
        </mxCell>
        <mxCell id="I1Nm32FQnlpQxQIGihCn-38" value="&lt;span style=&quot;font-size: 14px;&quot;&gt;2&lt;/span&gt;" style="edgeLabel;html=1;align=center;verticalAlign=middle;resizable=0;points=[];fontFamily=Helvetica;fontSize=11;fontColor=default;labelBackgroundColor=default;fillColor=none;gradientColor=none;" vertex="1" connectable="0" parent="I1Nm32FQnlpQxQIGihCn-34">
          <mxGeometry x="0.132" y="-4" relative="1" as="geometry">
            <mxPoint x="17" y="-7" as="offset" />
          </mxGeometry>
        </mxCell>
        <mxCell id="I1Nm32FQnlpQxQIGihCn-35" style="edgeStyle=none;shape=connector;rounded=0;orthogonalLoop=1;jettySize=auto;html=1;exitX=0.5;exitY=1;exitDx=0;exitDy=0;entryX=0.5;entryY=0;entryDx=0;entryDy=0;strokeColor=default;align=center;verticalAlign=middle;fontFamily=Helvetica;fontSize=11;fontColor=default;labelBackgroundColor=default;resizable=0;startArrow=none;startFill=0;endArrow=classic;" edge="1" parent="1" source="I1Nm32FQnlpQxQIGihCn-2" target="I1Nm32FQnlpQxQIGihCn-13">
          <mxGeometry relative="1" as="geometry" />
        </mxCell>
        <mxCell id="I1Nm32FQnlpQxQIGihCn-36" value="&lt;font style=&quot;font-size: 14px;&quot;&gt;0&lt;/font&gt;" style="edgeLabel;html=1;align=center;verticalAlign=middle;resizable=0;points=[];fontFamily=Helvetica;fontSize=11;fontColor=default;labelBackgroundColor=default;fillColor=none;gradientColor=none;" vertex="1" connectable="0" parent="I1Nm32FQnlpQxQIGihCn-35">
          <mxGeometry x="0.064" y="-2" relative="1" as="geometry">
            <mxPoint x="-16" as="offset" />
          </mxGeometry>
        </mxCell>
        <mxCell id="I1Nm32FQnlpQxQIGihCn-2" value="&lt;font style=&quot;font-size: 16px;&quot;&gt;y2&lt;/font&gt;" style="ellipse;whiteSpace=wrap;html=1;aspect=fixed;" vertex="1" parent="1">
          <mxGeometry x="210" y="210" width="60" height="60" as="geometry" />
        </mxCell>
        <mxCell id="I1Nm32FQnlpQxQIGihCn-28" style="edgeStyle=none;shape=connector;rounded=0;orthogonalLoop=1;jettySize=auto;html=1;entryX=0.5;entryY=0;entryDx=0;entryDy=0;strokeColor=default;align=center;verticalAlign=middle;fontFamily=Helvetica;fontSize=11;fontColor=default;labelBackgroundColor=default;resizable=0;startArrow=none;startFill=0;endArrow=classic;" edge="1" parent="1" source="I1Nm32FQnlpQxQIGihCn-3" target="I1Nm32FQnlpQxQIGihCn-7">
          <mxGeometry relative="1" as="geometry" />
        </mxCell>
        <mxCell id="I1Nm32FQnlpQxQIGihCn-40" value="&lt;font style=&quot;font-size: 14px;&quot;&gt;1&lt;/font&gt;" style="edgeLabel;html=1;align=center;verticalAlign=middle;resizable=0;points=[];fontFamily=Helvetica;fontSize=11;fontColor=default;labelBackgroundColor=default;fillColor=none;gradientColor=none;" vertex="1" connectable="0" parent="I1Nm32FQnlpQxQIGihCn-28">
          <mxGeometry x="-0.3333" y="1" relative="1" as="geometry">
            <mxPoint x="-11" y="10" as="offset" />
          </mxGeometry>
        </mxCell>
        <mxCell id="I1Nm32FQnlpQxQIGihCn-29" style="edgeStyle=none;shape=connector;rounded=0;orthogonalLoop=1;jettySize=auto;html=1;exitX=0;exitY=1;exitDx=0;exitDy=0;entryX=0.5;entryY=0;entryDx=0;entryDy=0;strokeColor=default;align=center;verticalAlign=middle;fontFamily=Helvetica;fontSize=11;fontColor=default;labelBackgroundColor=default;resizable=0;startArrow=none;startFill=0;endArrow=classic;" edge="1" parent="1" source="I1Nm32FQnlpQxQIGihCn-3" target="I1Nm32FQnlpQxQIGihCn-17">
          <mxGeometry relative="1" as="geometry" />
        </mxCell>
        <mxCell id="I1Nm32FQnlpQxQIGihCn-39" value="&lt;span style=&quot;font-size: 14px;&quot;&gt;0&lt;/span&gt;" style="edgeLabel;html=1;align=center;verticalAlign=middle;resizable=0;points=[];fontFamily=Helvetica;fontSize=11;fontColor=default;labelBackgroundColor=default;fillColor=none;gradientColor=none;" vertex="1" connectable="0" parent="I1Nm32FQnlpQxQIGihCn-29">
          <mxGeometry x="-0.2108" y="-2" relative="1" as="geometry">
            <mxPoint x="-24" y="13" as="offset" />
          </mxGeometry>
        </mxCell>
        <mxCell id="I1Nm32FQnlpQxQIGihCn-30" style="edgeStyle=none;shape=connector;rounded=0;orthogonalLoop=1;jettySize=auto;html=1;exitX=1;exitY=1;exitDx=0;exitDy=0;entryX=0.5;entryY=0;entryDx=0;entryDy=0;strokeColor=default;align=center;verticalAlign=middle;fontFamily=Helvetica;fontSize=11;fontColor=default;labelBackgroundColor=default;resizable=0;startArrow=none;startFill=0;endArrow=classic;" edge="1" parent="1" source="I1Nm32FQnlpQxQIGihCn-3" target="I1Nm32FQnlpQxQIGihCn-18">
          <mxGeometry relative="1" as="geometry" />
        </mxCell>
        <mxCell id="I1Nm32FQnlpQxQIGihCn-41" value="&lt;font style=&quot;font-size: 14px;&quot;&gt;2&lt;/font&gt;" style="edgeLabel;html=1;align=center;verticalAlign=middle;resizable=0;points=[];fontFamily=Helvetica;fontSize=11;fontColor=default;labelBackgroundColor=default;fillColor=none;gradientColor=none;" vertex="1" connectable="0" parent="I1Nm32FQnlpQxQIGihCn-30">
          <mxGeometry x="-0.1341" y="3" relative="1" as="geometry">
            <mxPoint x="21" y="11" as="offset" />
          </mxGeometry>
        </mxCell>
        <mxCell id="I1Nm32FQnlpQxQIGihCn-3" value="&lt;div style=&quot;&quot;&gt;&lt;font style=&quot;font-size: 16px;&quot;&gt;y3&lt;/font&gt;&lt;/div&gt;" style="ellipse;whiteSpace=wrap;html=1;aspect=fixed;" vertex="1" parent="1">
          <mxGeometry x="530" y="210" width="60" height="60" as="geometry" />
        </mxCell>
        <mxCell id="I1Nm32FQnlpQxQIGihCn-31" style="edgeStyle=none;shape=connector;rounded=0;orthogonalLoop=1;jettySize=auto;html=1;exitX=0.5;exitY=1;exitDx=0;exitDy=0;entryX=0.5;entryY=0;entryDx=0;entryDy=0;strokeColor=default;align=center;verticalAlign=middle;fontFamily=Helvetica;fontSize=11;fontColor=default;labelBackgroundColor=default;resizable=0;startArrow=none;startFill=0;endArrow=classic;" edge="1" parent="1" source="I1Nm32FQnlpQxQIGihCn-7" target="I1Nm32FQnlpQxQIGihCn-19">
          <mxGeometry relative="1" as="geometry" />
        </mxCell>
        <mxCell id="I1Nm32FQnlpQxQIGihCn-43" value="&lt;font style=&quot;font-size: 14px;&quot;&gt;&amp;gt;= 0,47&lt;/font&gt;" style="edgeLabel;html=1;align=center;verticalAlign=middle;resizable=0;points=[];fontFamily=Helvetica;fontSize=11;fontColor=default;labelBackgroundColor=default;fillColor=none;gradientColor=none;" vertex="1" connectable="0" parent="I1Nm32FQnlpQxQIGihCn-31">
          <mxGeometry x="0.0077" y="2" relative="1" as="geometry">
            <mxPoint x="38" as="offset" />
          </mxGeometry>
        </mxCell>
        <mxCell id="I1Nm32FQnlpQxQIGihCn-32" style="edgeStyle=none;shape=connector;rounded=0;orthogonalLoop=1;jettySize=auto;html=1;exitX=0.5;exitY=1;exitDx=0;exitDy=0;entryX=0.5;entryY=0;entryDx=0;entryDy=0;strokeColor=default;align=center;verticalAlign=middle;fontFamily=Helvetica;fontSize=11;fontColor=default;labelBackgroundColor=default;resizable=0;startArrow=none;startFill=0;endArrow=classic;" edge="1" parent="1" source="I1Nm32FQnlpQxQIGihCn-7" target="I1Nm32FQnlpQxQIGihCn-20">
          <mxGeometry relative="1" as="geometry" />
        </mxCell>
        <mxCell id="I1Nm32FQnlpQxQIGihCn-42" value="&lt;font style=&quot;font-size: 14px;&quot;&gt;&amp;lt; 0,47&lt;/font&gt;" style="edgeLabel;html=1;align=center;verticalAlign=middle;resizable=0;points=[];fontFamily=Helvetica;fontSize=11;fontColor=default;labelBackgroundColor=default;fillColor=none;gradientColor=none;" vertex="1" connectable="0" parent="I1Nm32FQnlpQxQIGihCn-32">
          <mxGeometry x="0.0923" y="-1" relative="1" as="geometry">
            <mxPoint x="-28" as="offset" />
          </mxGeometry>
        </mxCell>
        <mxCell id="I1Nm32FQnlpQxQIGihCn-7" value="&lt;font style=&quot;font-size: 16px;&quot;&gt;y1&lt;/font&gt;" style="ellipse;whiteSpace=wrap;html=1;aspect=fixed;" vertex="1" parent="1">
          <mxGeometry x="530" y="330" width="60" height="60" as="geometry" />
        </mxCell>
        <mxCell id="I1Nm32FQnlpQxQIGihCn-13" value="&lt;font style=&quot;font-size: 16px;&quot;&gt;B&lt;/font&gt;" style="whiteSpace=wrap;html=1;aspect=fixed;" vertex="1" parent="1">
          <mxGeometry x="130" y="330" width="60" height="60" as="geometry" />
        </mxCell>
        <mxCell id="I1Nm32FQnlpQxQIGihCn-14" value="&lt;font style=&quot;font-size: 16px;&quot;&gt;C&lt;/font&gt;" style="whiteSpace=wrap;html=1;aspect=fixed;" vertex="1" parent="1">
          <mxGeometry x="210" y="330" width="60" height="60" as="geometry" />
        </mxCell>
        <mxCell id="I1Nm32FQnlpQxQIGihCn-16" value="&lt;font style=&quot;font-size: 16px;&quot;&gt;C&lt;/font&gt;" style="whiteSpace=wrap;html=1;aspect=fixed;" vertex="1" parent="1">
          <mxGeometry x="290" y="330" width="60" height="60" as="geometry" />
        </mxCell>
        <mxCell id="I1Nm32FQnlpQxQIGihCn-17" value="&lt;font style=&quot;font-size: 16px;&quot;&gt;A&lt;/font&gt;" style="whiteSpace=wrap;html=1;aspect=fixed;" vertex="1" parent="1">
          <mxGeometry x="450" y="330" width="60" height="60" as="geometry" />
        </mxCell>
        <mxCell id="I1Nm32FQnlpQxQIGihCn-18" value="&lt;font style=&quot;font-size: 16px;&quot;&gt;B&lt;/font&gt;" style="whiteSpace=wrap;html=1;aspect=fixed;" vertex="1" parent="1">
          <mxGeometry x="610" y="330" width="60" height="60" as="geometry" />
        </mxCell>
        <mxCell id="I1Nm32FQnlpQxQIGihCn-19" value="&lt;font style=&quot;font-size: 16px;&quot;&gt;C&lt;/font&gt;" style="whiteSpace=wrap;html=1;aspect=fixed;" vertex="1" parent="1">
          <mxGeometry x="570" y="450" width="60" height="60" as="geometry" />
        </mxCell>
        <mxCell id="I1Nm32FQnlpQxQIGihCn-20" value="&lt;font style=&quot;font-size: 16px;&quot;&gt;B&lt;/font&gt;" style="whiteSpace=wrap;html=1;aspect=fixed;" vertex="1" parent="1">
          <mxGeometry x="490" y="450" width="60" height="60" as="geometry" />
        </mxCell>
      </root>
    </mxGraphModel>
  </diagram>
</mxfile>
